<?xml version="1.0" encoding="UTF-8" standalone="no"?>
<svg
   xmlns:dc="http://purl.org/dc/elements/1.1/"
   xmlns:cc="http://creativecommons.org/ns#"
   xmlns:rdf="http://www.w3.org/1999/02/22-rdf-syntax-ns#"
   xmlns:svg="http://www.w3.org/2000/svg"
   xmlns="http://www.w3.org/2000/svg"
   xmlns:sodipodi="http://sodipodi.sourceforge.net/DTD/sodipodi-0.dtd"
   xmlns:inkscape="http://www.inkscape.org/namespaces/inkscape"
   version="1.1"
   id="svg2"
   xml:space="preserve"
   width="273.82666"
   height="100.64"
   viewBox="0 0 273.82666 100.64"
   sodipodi:docname="Teen Kitchen Project horizontal black.eps"><metadata
     id="metadata8"><rdf:RDF><cc:Work
         rdf:about=""><dc:format>image/svg+xml</dc:format><dc:type
           rdf:resource="http://purl.org/dc/dcmitype/StillImage" /></cc:Work></rdf:RDF></metadata><defs
     id="defs6" /><sodipodi:namedview
     pagecolor="#ffffff"
     bordercolor="#666666"
     borderopacity="1"
     objecttolerance="10"
     gridtolerance="10"
     guidetolerance="10"
     inkscape:pageopacity="0"
     inkscape:pageshadow="2"
     inkscape:window-width="640"
     inkscape:window-height="480"
     id="namedview4" /><g
     id="g10"
     inkscape:groupmode="layer"
     inkscape:label="ink_ext_XXXXXX"
     transform="matrix(1.3333333,0,0,-1.3333333,0,100.64)"><g
       id="g12"
       transform="scale(0.1)"><path
         d="m 680.75,591.801 h -40.66 v 36.254 H 760.723 V 591.801 H 719.816 V 374.766 H 680.75 v 217.035"
         style="fill:#231f20;fill-opacity:1;fill-rule:nonzero;stroke:none"
         id="path14" /><path
         d="m 827.52,493.09 v 20.094 c 0,18.156 -4.188,27.964 -18.196,27.964 -12.59,0 -18.668,-8.929 -18.668,-28.007 V 493.09 Z m -37.2,-30.586 v -28.828 c 0,-15.164 3.504,-29.024 18.336,-29.024 15.555,0 17.485,13.922 17.485,28.039 v 0.942 h 38.062 v -0.895 c 0,-20.593 -4.398,-61.004 -54.64,-61.004 -49.981,0 -57.305,30.957 -57.305,70.633 v 64.321 c 0,26.843 8.465,67.378 57.109,67.378 41.91,0 55.547,-28.257 55.547,-67.089 0,-11.485 0,-33.188 0,-44.473 H 790.32"
         style="fill:#231f20;fill-opacity:1;fill-rule:nonzero;stroke:none"
         id="path16" /><path
         d="m 963.27,493.09 v 20.094 c 0,18.156 -4.184,27.964 -18.196,27.964 -12.586,0 -18.664,-8.929 -18.664,-28.007 V 493.09 Z m -37.2,-30.586 v -28.828 c 0,-15.164 3.508,-29.024 18.336,-29.024 15.559,0 17.489,13.922 17.489,28.039 v 0.942 h 38.058 v -0.895 c 0,-20.593 -4.398,-61.004 -54.637,-61.004 -49.98,0 -57.304,30.957 -57.304,70.633 v 64.321 c 0,26.843 8.461,67.378 57.109,67.378 41.906,0 55.549,-28.257 55.549,-67.089 0,-11.485 0,-33.188 0,-44.473 h -74.6"
         style="fill:#231f20;fill-opacity:1;fill-rule:nonzero;stroke:none"
         id="path18" /><path
         d="m 1026.84,510.484 c 0,39.871 0,51.645 -0.37,60.547 h 37.3 c 0.72,-4.504 1.43,-12.191 1.43,-17.847 5.69,11.386 16.2,20.882 36.17,20.882 23.88,0 40.31,-14.488 40.31,-51.57 v -147.73 h -39.06 v 140.355 c 0,17.715 -6.1,23.93 -16.87,23.93 -13.91,0 -19.84,-7.387 -19.84,-34.039 V 374.766 h -39.07 v 135.718"
         style="fill:#231f20;fill-opacity:1;fill-rule:nonzero;stroke:none"
         id="path20" /><path
         d="m 1224.84,628.055 h 38.4 V 513.641 h 0.38 c 9.7,25.047 31.38,79.566 45.34,114.414 h 43.49 l -46.14,-98.418 48.87,-154.871 h -42.54 l -33.08,114.047 -16.32,-34.106 v -79.941 h -38.4 v 253.289"
         style="fill:#231f20;fill-opacity:1;fill-rule:nonzero;stroke:none"
         id="path22" /><path
         d="m 1371.5,639.102 h 39.06 v -41.743 h -39.06 z m -0.33,-68.071 h 39.06 V 374.766 h -39.06 v 196.265"
         style="fill:#231f20;fill-opacity:1;fill-rule:nonzero;stroke:none"
         id="path24" /><path
         d="m 1428.29,571.031 h 20.84 v 47.11 h 39.03 v -47.11 h 24.61 v -34.254 h -24.61 v -116.05 c 0,-9.282 1.27,-16.7 13.11,-16.7 3.46,0 8.57,0.383 10.65,1.141 v -29.445 c -6.6,-3.188 -16.48,-3.903 -23.83,-3.903 -24.53,0 -38.96,7.922 -38.96,41.914 v 123.043 h -20.84 v 34.254"
         style="fill:#231f20;fill-opacity:1;fill-rule:nonzero;stroke:none"
         id="path26" /><path
         d="m 1634.73,439.941 v -2.652 c 0,-35.434 -8.97,-65.555 -54.64,-65.555 -45.26,0 -53.5,30.293 -53.5,70.832 v 67.356 c 0,32.031 10.6,64.144 55.35,64.144 48.02,0 52.79,-34.769 52.79,-59.066 v -7.34 h -38.45 v 8.266 c 0,15.09 -2.41,25.222 -15.06,25.222 -11.57,0 -15.52,-8.98 -15.52,-25.539 v -85.058 c 0,-13.602 2.5,-25.899 15.44,-25.899 12.53,0 15.14,9.946 15.14,25.957 v 9.332 h 38.45"
         style="fill:#231f20;fill-opacity:1;fill-rule:nonzero;stroke:none"
         id="path28" /><path
         d="m 1696.91,639.102 v -84.313 c 6.12,11.328 17.17,19.277 36.46,19.277 30.01,0 39.31,-22.523 39.31,-50.543 V 374.766 h -39.06 v 138.382 c 0,14.485 -2.86,25.903 -17.21,25.903 -15.2,0 -19.5,-9.973 -19.5,-32.418 V 374.766 h -39.07 v 264.336 h 39.07"
         style="fill:#231f20;fill-opacity:1;fill-rule:nonzero;stroke:none"
         id="path30" /><path
         d="m 1875.26,493.09 v 20.094 c 0,18.156 -4.19,27.964 -18.2,27.964 -12.58,0 -18.67,-8.929 -18.67,-28.007 V 493.09 Z m -37.2,-30.586 v -28.828 c 0,-15.164 3.51,-29.024 18.33,-29.024 15.57,0 17.49,13.922 17.49,28.039 v 0.942 h 38.07 v -0.895 c 0,-20.593 -4.41,-61.004 -54.64,-61.004 -49.99,0 -57.32,30.957 -57.32,70.633 v 64.321 c 0,26.843 8.47,67.378 57.11,67.378 41.92,0 55.56,-28.257 55.56,-67.089 0,-11.485 0,-33.188 0,-44.473 h -74.6"
         style="fill:#231f20;fill-opacity:1;fill-rule:nonzero;stroke:none"
         id="path32" /><path
         d="m 1938.83,510.484 c 0,39.871 0,51.645 -0.38,60.547 h 37.31 c 0.71,-4.504 1.42,-12.191 1.42,-17.847 5.68,11.386 16.19,20.882 36.17,20.882 23.88,0 40.32,-14.488 40.32,-51.57 v -147.73 h -39.07 v 140.355 c 0,17.715 -6.11,23.93 -16.87,23.93 -13.91,0 -19.84,-7.387 -19.84,-34.039 V 374.766 h -39.06 v 135.718"
         style="fill:#231f20;fill-opacity:1;fill-rule:nonzero;stroke:none"
         id="path34" /><path
         d="m 696.23,203.84 h 10.708 c 24.355,0 28.523,14.215 28.523,38.941 v 12.453 c 0,18.407 -3.348,33.594 -25.055,33.594 H 696.23 Z m -39.062,117.234 h 56.336 c 40.226,0 60.73,-19.863 60.73,-64.656 v -14.926 c 0,-41.804 -14.925,-69.578 -62.914,-69.578 H 696.23 V 67.7813 H 657.168 V 321.074"
         style="fill:#231f20;fill-opacity:1;fill-rule:nonzero;stroke:none"
         id="path36" /><path
         d="m 795.523,197.539 c 0,32.578 0.34,46.473 -0.375,66.516 h 37.02 c 0.375,-3.782 1.086,-21.242 1.086,-31.782 7.785,26.528 25.047,34.629 43.262,34.719 V 218.84 c -22.403,-0.039 -41.922,-5.727 -41.922,-45.942 V 67.7813 H 795.523 V 197.539"
         style="fill:#231f20;fill-opacity:1;fill-rule:nonzero;stroke:none"
         id="path38" /><path
         d="m 930.91,206.035 v -79.297 c 0,-15.859 4.805,-27.4021 18.711,-27.4021 13.059,0 18.094,9.6681 18.094,28.0741 v 78.957 c 0,15.117 -4.051,26.121 -18.379,26.121 -12.758,0 -18.426,-9.109 -18.426,-26.453 z m 75.91,-2.246 v -75.441 c 0,-42.0394 -20.914,-63.6019 -57.91,-63.6019 -38.242,0 -57.109,22.0898 -57.109,63.3789 v 77.285 c 0,42.488 24.129,61.668 58.246,61.668 35.539,0 56.773,-21.805 56.773,-63.289"
         style="fill:#231f20;fill-opacity:1;fill-rule:nonzero;stroke:none"
         id="path40" /><path
         d="m 1034.41,290.371 v 41.746 h 39.06 v -41.746 z m 38.92,-26.316 V 58.6914 C 1073.33,28.6133 1069.79,0 1029.39,0 c -3.81,0 -8.84,0 -17.35,1.04688 V 35.7695 c 4.03,-0.3789 6.6,-0.3789 9.16,-0.3789 9.86,0 13.08,2.9024 13.08,17.6367 V 264.055 h 39.05"
         style="fill:#231f20;fill-opacity:1;fill-rule:nonzero;stroke:none"
         id="path42" /><path
         d="m 1176,186.102 v 20.097 c 0,18.156 -4.19,27.961 -18.19,27.961 -12.59,0 -18.68,-8.926 -18.68,-28.008 v -20.05 z m -37.2,-30.575 v -28.839 c 0,-15.165 3.51,-29.02 18.33,-29.02 15.57,0 17.49,13.926 17.49,28.047 v 0.933 h 38.07 v -0.894 c 0,-20.598 -4.41,-61.0079 -54.64,-61.0079 -49.99,0 -57.31,30.9687 -57.31,70.6449 v 64.316 c 0,26.848 8.46,67.371 57.1,67.371 41.92,0 55.56,-28.25 55.56,-67.09 0,-11.472 0,-33.183 0,-44.461 h -74.6"
         style="fill:#231f20;fill-opacity:1;fill-rule:nonzero;stroke:none"
         id="path44" /><path
         d="m 1344.63,132.961 v -2.656 c 0,-35.4339 -8.96,-65.5589 -54.64,-65.5589 -45.26,0 -53.5,30.293 -53.5,70.8399 v 67.352 c 0,32.031 10.6,64.14 55.35,64.14 48.03,0 52.79,-34.765 52.79,-59.062 v -7.34 h -38.45 v 8.269 c 0,15.086 -2.41,25.215 -15.05,25.215 -11.58,0 -15.53,-8.976 -15.53,-25.539 v -85.058 c 0,-13.594 2.5,-25.895 15.44,-25.895 12.53,0 15.14,9.949 15.14,25.965 v 9.328 h 38.45"
         style="fill:#231f20;fill-opacity:1;fill-rule:nonzero;stroke:none"
         id="path46" /><path
         d="m 1358.9,264.055 h 20.84 v 47.105 h 39.02 v -47.105 h 24.61 v -34.258 h -24.61 V 113.738 c 0,-9.273 1.27,-16.6872 13.12,-16.6872 3.46,0 8.56,0.3789 10.64,1.1328 V 68.7383 c -6.6,-3.1836 -16.47,-3.8945 -23.83,-3.8945 -24.53,0 -38.95,7.9101 -38.95,41.9022 v 123.051 h -20.84 v 34.258"
         style="fill:#231f20;fill-opacity:1;fill-rule:nonzero;stroke:none"
         id="path48" /><path
         d="m 526.801,374.617 4.164,-195.683 c 0,0 -8.324,-24.969 -31.223,-37.469 -22.902,-12.481 -77.019,-37.461 -174.855,-35.379 -97.844,2.078 -123.348,17.273 -141.563,29.137 -20.418,13.3 -26.894,17.148 -33.14,25.48 l 6.828,247.899 c 0,0 10.703,-16.079 54.652,-28.114 54.801,-15 99.5,-19.914 151.547,-19.914 52.043,0 163.59,14.043 163.59,14.043"
         style="fill:#a7a5a6;fill-opacity:1;fill-rule:nonzero;stroke:none"
         id="path50" /><path
         d="m 51.8633,491.195 c -18.1133,9.727 -32.4258,29.192 -32.3516,50.176 0.0625,18.551 17.7774,34.106 31.4453,21.328 1.2774,-1.57 2.5391,-3.164 3.9493,-4.578 3.0546,-3.082 23.25,-8.109 18.3554,-0.871 -1.6523,2.441 -3.664,4.754 -5.832,6.965 -9.5,13.055 -12.6641,29.308 1.957,41.156 20.6367,16.715 32.3863,-26.57 34.7813,-38.324 5.906,-29.086 4.77,-61.652 -0.844,-91.359 -18.3513,2.179 -36.4099,7.433 -51.4607,15.507 z m 98.1877,-13.757 c -8.223,-1.817 -16.953,-2.731 -25.848,-2.883 3.129,19.433 3.973,39.445 2.996,58.922 -1.238,24.421 -3.75,51.918 -21.785,70.152 -11.7617,11.894 -35.6992,20.379 -51.371,11.234 -15.0313,-8.765 -17.0078,-22.808 -12.3828,-36.015 -7.9258,1.664 -16.1485,1.027 -23.6524,-3.125 -28.3125,-15.641 -18.808581,-49.668 -1.6992,-70.118 18.9492,-22.656 51.9961,-34.984 85.3204,-39.203 -0.117,-0.535 -0.172,-1.105 -0.293,-1.632 -1.3907,-5.938 18.629,-11.247 19.934,-5.665 0.437,1.875 0.691,3.809 1.082,5.7 15.671,-0.43 30.777,0.84 43.769,3.715 6.938,1.535 -10.754,10.093 -16.07,8.918"
         style="fill:#231f20;fill-opacity:1;fill-rule:nonzero;stroke:none"
         id="path52" /><path
         d="m 570.824,283.535 c -1.351,0.274 -2.84,0.488 -4.336,0.664 l 1.657,49.942 c 0.382,-0.118 0.773,-0.246 1.105,-0.325 14.352,-3.222 28.828,-2.988 29.945,-20.703 1.071,-16.922 -10.57,-33.308 -28.371,-29.578 z m -454.488,14.348 c -20.2501,23.601 -8.316,59.383 23.633,55.945 l -2.188,-68.926 c -7.883,1.809 -15.293,5.813 -21.445,12.981 z m 505.059,34.363 c -8.926,8.399 -25.184,9.539 -36.512,12.078 -4.879,1.106 -11.141,1.574 -16.403,0.063 l 1.188,36.101 -22.047,-5.508 -6.226,-188.507 c -0.657,-9.395 -4.922,-38.602 -15.555,-49.246 -9.067,-9.051 -32.297,-20.606 -40.301,-24.219 -19.476,-8.352 -48.855,-20.9767 -115.652,-19.4142 -67.071,1.5625 -94.414,9.4412 -129.039,19.4222 -5.801,1.672 -11.793,3.402 -18.188,5.168 -34.398,9.492 -59.574,38.527 -66.793,47.636 l 3.414,107.395 c 18.348,3.355 35.949,10.465 47.821,18.387 5.48,3.652 -2.879,6.836 -5.653,7.253 -6.375,0.95 -13.574,0.032 -19,-3.582 -7.008,-4.679 -14.836,-8.105 -22.789,-9.98 l 4.508,127.059 -20.289,15.035 -3.535,-61.703 c -39.739,0.125 -78.5588,-24.063 -53.3206,-69.336 10.1329,-18.172 29.4296,-24.953 50.3246,-25.137 l -3.571,-112.219 2.106,-2.984 c 1.297,-1.86 32.469,-45.512 80.965,-58.8986 6.308,-1.7383 12.222,-3.4492 17.945,-5.0899 36.137,-10.4179 64.687,-18.6523 134.59,-20.2812 3.867,-0.0899 7.613,-0.1289 11.265,-0.1289 63.774,0 94.665,13.2344 113.688,21.3867 3.383,1.5156 33.441,15.2659 46.957,28.7809 18.281,18.289 21.59,58.633 21.93,63.575 l 2.84,85.949 c 24.593,-2.805 54.828,1.519 62.167,28.418 3.247,11.914 2.415,23.816 -6.835,32.527"
         style="fill:#231f20;fill-opacity:1;fill-rule:nonzero;stroke:none"
         id="path54" /><path
         d="m 177.277,598.359 c -5.371,7.973 -5.992,19.692 -0.996,27.926 4.567,7.528 10.172,3.028 13.496,-2.539 0.45,-3.203 1.407,-6.426 2.789,-9.469 2.133,-4.707 16.891,-1.386 15.532,1.61 -0.207,0.457 -0.434,1.222 -0.657,1.91 0.325,0.387 0.465,0.805 0.336,1.246 -0.304,1.051 -0.953,1.84 -1.379,2.801 -1.972,9.426 -2.359,24.457 9.778,19.457 10.219,-4.211 14.336,-15.133 14.492,-25.242 0.246,-16.391 -8.805,-35.551 -20.031,-48.539 -13.039,8.261 -25.192,18.695 -33.36,30.839 z m 52.305,-41.168 c -2.992,1.305 -5.984,3.004 -8.984,4.575 19.031,18.785 37.593,57.574 15.285,79.504 -8.805,8.652 -22.793,9.332 -33.766,5.183 -5.887,-2.23 -9.371,-6.183 -11.148,-10.867 -12.492,4.082 -27.774,-0.023 -32.5,-14.207 -10.422,-31.316 37.617,-59.207 60.285,-69.098 3.676,-1.601 18.394,1.61 10.828,4.91"
         style="fill:#231f20;fill-opacity:1;fill-rule:nonzero;stroke:none"
         id="path56" /><path
         d="m 136.879,636.836 c -0.227,0.059 -0.293,0.129 -0.543,0.184 -22.727,5.343 -54.1055,25.308 -66.543,44.835 -6.9688,10.934 -6.6407,22.754 0.7851,33.188 17.0391,23.941 31.2579,-16.832 30.4529,-29.176 -0.336,-5.07 18.371,-5.457 18.735,0.129 0.496,7.625 -0.926,15.016 -3.911,21.563 -0.207,9.39 1.567,18.629 5.754,27.386 12.469,26.094 27.598,-11.136 29.332,-23.992 3.188,-23.672 -3.078,-51.406 -14.062,-74.117 z m 17.238,103.504 c -9.324,8.262 -27.414,19.992 -40.277,11.629 -8.805,-5.723 -13.285,-15.403 -15.0587,-25.828 -3.2852,1.855 -6.8008,3.425 -10.7071,4.328 -16.7226,3.867 -35.9804,-6.367 -40.789,-23.246 -10.2891,-36.094 50.8867,-69.981 79.6368,-76.735 1.738,-0.406 4.457,-0.144 7.031,0.434 -1.734,-3.199 -3.551,-6.289 -5.461,-9.199 -2.387,-3.649 14.344,-11.317 17.664,-6.262 19.242,29.328 39.809,96.668 7.961,124.879"
         style="fill:#231f20;fill-opacity:1;fill-rule:nonzero;stroke:none"
         id="path58" /><path
         d="m 51.8633,491.195 c -18.1133,9.727 -32.4258,29.192 -32.3516,50.176 0.0625,18.551 17.7774,34.106 31.4453,21.328 1.2774,-1.57 2.5391,-3.164 3.9493,-4.578 3.0546,-3.082 23.25,-8.109 18.3554,-0.871 -1.6523,2.441 -3.664,4.754 -5.832,6.965 -9.5,13.055 -12.6641,29.308 1.957,41.156 20.6367,16.715 32.3863,-26.57 34.7813,-38.324 5.906,-29.086 4.77,-61.652 -0.844,-91.359 -18.3513,2.179 -36.4099,7.433 -51.4607,15.507"
         style="fill:#deddde;fill-opacity:1;fill-rule:nonzero;stroke:none"
         id="path60" /><path
         d="m 177.277,598.359 c -5.371,7.973 -5.992,19.692 -0.996,27.926 4.567,7.528 10.172,3.028 13.496,-2.539 0.45,-3.203 1.407,-6.426 2.789,-9.469 2.133,-4.707 16.891,-1.386 15.532,1.61 -0.207,0.457 -0.434,1.222 -0.657,1.91 0.325,0.387 0.465,0.805 0.336,1.246 -0.304,1.051 -0.953,1.84 -1.379,2.801 -1.972,9.426 -2.359,24.457 9.778,19.457 10.219,-4.211 14.336,-15.133 14.492,-25.242 0.246,-16.391 -8.805,-35.551 -20.031,-48.539 -13.039,8.261 -25.192,18.695 -33.36,30.839"
         style="fill:#deddde;fill-opacity:1;fill-rule:nonzero;stroke:none"
         id="path62" /><path
         d="m 136.879,636.836 c -0.227,0.059 -0.293,0.129 -0.543,0.184 -22.727,5.343 -54.1055,25.308 -66.543,44.835 -6.9688,10.934 -6.6407,22.754 0.7851,33.188 17.0391,23.941 31.2579,-16.832 30.4529,-29.176 -0.336,-5.07 18.371,-5.457 18.735,0.129 0.496,7.625 -0.926,15.016 -3.911,21.563 -0.207,9.39 1.567,18.629 5.754,27.386 12.469,26.094 27.598,-11.136 29.332,-23.992 3.188,-23.672 -3.078,-51.406 -14.062,-74.117"
         style="fill:#deddde;fill-opacity:1;fill-rule:nonzero;stroke:none"
         id="path64" /><path
         d="m 350.738,480.473 c -116.554,0 -188.129,-30.918 -188.129,-53.086 0,-22.164 71.575,-53.086 188.129,-53.086 116.559,0 188.133,30.922 188.133,53.086 0,22.168 -71.574,53.086 -188.133,53.086 z m 0,-124.899 c -100.281,0 -206.859,25.168 -206.859,71.813 0,46.644 106.578,71.816 206.859,71.816 100.285,0 206.864,-25.172 206.864,-71.816 0,-46.645 -106.579,-71.813 -206.864,-71.813"
         style="fill:#231f20;fill-opacity:1;fill-rule:nonzero;stroke:none"
         id="path66" /><path
         d="m 318.93,542.621 c -76.664,0 -129.227,-21.289 -133.95,-41.012 -1.042,-4.336 0.247,-9.398 3.836,-15.062 20.008,-31.59 97.465,-66.934 188.36,-85.945 42.262,-8.84 83.965,-13.512 120.597,-13.512 64.332,0 96.594,14.433 100.028,28.738 1.316,5.496 -0.75,12.766 -5.988,21.027 -21.125,33.348 -90.227,77.09 -181.418,96.168 -30.442,6.368 -61.215,9.598 -91.465,9.598 z M 497.773,368.355 c -37.902,0 -80.929,4.809 -124.433,13.911 -96.977,20.285 -177.488,58.16 -200.356,94.257 -6.394,10.102 -8.496,20.008 -6.226,29.454 7.816,32.601 70.394,55.375 152.172,55.375 31.539,0 63.597,-3.36 95.297,-9.997 100.765,-21.074 170.894,-68.929 193.414,-104.476 8.125,-12.816 10.937,-24.734 8.379,-35.418 -8.997,-37.508 -77.95,-43.106 -118.247,-43.106"
         style="fill:#231f20;fill-opacity:1;fill-rule:nonzero;stroke:none"
         id="path68" /><path
         d="m 583.352,407.457 c -8.61,-32.219 -98.641,-36.117 -201.098,-8.73 -102.465,27.394 -178.535,75.707 -169.926,107.914 8.613,32.214 98.641,36.117 201.11,8.726 102.46,-27.39 178.527,-75.703 169.914,-107.91"
         style="fill:#a7a5a6;fill-opacity:1;fill-rule:nonzero;stroke:none"
         id="path70" /><path
         d="m 429.398,565.469 c 35.918,-12.809 55.18,-66.723 29.93,-97.16 -21.371,-25.766 -60.015,-6.875 -71.035,18.761 -5.098,11.875 -1.629,28.914 8.703,36.774 12.43,9.457 15.77,-24.578 15.047,-29.649 -0.824,-5.82 20.918,-7.75 21.844,-1.234 4.535,31.957 -31.739,54.43 -58.242,34.269 -15.293,-11.628 -12.743,-34.89 -4.411,-49.601 10.102,-17.859 32.489,-26.703 51.645,-29.625 32.894,-5.02 64.957,11.121 69.348,45.75 4.386,34.613 -19.852,67.394 -51.383,78.637 -6.36,2.265 -24.813,-2.157 -11.446,-6.922 v 0"
         style="fill:#231f20;fill-opacity:1;fill-rule:nonzero;stroke:none"
         id="path72" /></g></g></svg>
