<?xml version="1.0" encoding="UTF-8" standalone="no"?>
<svg
   xmlns:dc="http://purl.org/dc/elements/1.1/"
   xmlns:cc="http://creativecommons.org/ns#"
   xmlns:rdf="http://www.w3.org/1999/02/22-rdf-syntax-ns#"
   xmlns:svg="http://www.w3.org/2000/svg"
   xmlns="http://www.w3.org/2000/svg"
   xmlns:sodipodi="http://sodipodi.sourceforge.net/DTD/sodipodi-0.dtd"
   xmlns:inkscape="http://www.inkscape.org/namespaces/inkscape"
   version="1.1"
   id="svg2"
   xml:space="preserve"
   width="226.86667"
   height="268.16"
   viewBox="0 0 226.86667 268.16"
   sodipodi:docname="Teen Kitchen Project vertical black.eps"><metadata
     id="metadata8"><rdf:RDF><cc:Work
         rdf:about=""><dc:format>image/svg+xml</dc:format><dc:type
           rdf:resource="http://purl.org/dc/dcmitype/StillImage" /></cc:Work></rdf:RDF></metadata><defs
     id="defs6" /><sodipodi:namedview
     pagecolor="#ffffff"
     bordercolor="#666666"
     borderopacity="1"
     objecttolerance="10"
     gridtolerance="10"
     guidetolerance="10"
     inkscape:pageopacity="0"
     inkscape:pageshadow="2"
     inkscape:window-width="640"
     inkscape:window-height="480"
     id="namedview4" /><g
     id="g10"
     inkscape:groupmode="layer"
     inkscape:label="ink_ext_XXXXXX"
     transform="matrix(1.3333333,0,0,-1.3333333,0,268.16)"><g
       id="g12"
       transform="scale(0.1)"><path
         d="m 589.25,1585.94 4.66,-218.88 c 0,0 -9.312,-27.93 -34.922,-41.91 -25.621,-13.97 -86.16,-41.9 -195.586,-39.58 -109.445,2.33 -137.968,19.33 -158.343,32.6 -22.84,14.87 -30.09,19.18 -37.071,28.5 l 7.633,277.28 c 0,0 11.969,-17.98 61.137,-31.44 61.297,-16.78 111.297,-22.28 169.512,-22.28 58.207,0 182.98,15.71 182.98,15.71"
         style="fill:#a7a5a6;fill-opacity:1;fill-rule:nonzero;stroke:none"
         id="path14" /><path
         d="m 58.0117,1716.34 c -20.2656,10.88 -36.2695,32.65 -36.1875,56.12 0.0703,20.75 19.8828,38.15 35.1719,23.86 1.4297,-1.76 2.8398,-3.54 4.4141,-5.12 3.4218,-3.45 26.0156,-9.08 20.5351,-0.98 -1.8476,2.74 -4.0937,5.32 -6.5234,7.79 -10.6289,14.6 -14.168,32.79 2.1953,46.04 23.0778,18.7 36.2228,-29.72 38.8948,-42.87 6.609,-32.54 5.336,-68.96 -0.938,-102.19 -20.5271,2.44 -40.7302,8.31 -57.5623,17.35 z M 167.84,1700.95 c -9.199,-2.04 -18.961,-3.06 -28.914,-3.23 3.5,21.74 4.445,44.12 3.351,65.91 -1.379,27.32 -4.191,58.08 -24.367,78.47 -13.156,13.3 -39.9334,22.79 -57.4608,12.57 -16.8125,-9.81 -19.0234,-25.52 -13.8554,-40.29 -8.8594,1.86 -18.0586,1.14 -26.4532,-3.49 -31.6719,-17.5 -21.035131,-55.56 -1.8984,-78.44 21.1953,-25.33 58.1562,-39.13 95.4378,-43.85 -0.137,-0.59 -0.196,-1.23 -0.332,-1.82 -1.559,-6.64 20.84,-12.58 22.297,-6.34 0.492,2.1 0.773,4.26 1.21,6.38 17.532,-0.48 34.426,0.94 48.958,4.16 7.761,1.71 -12.028,11.29 -17.973,9.97"
         style="fill:#231f20;fill-opacity:1;fill-rule:nonzero;stroke:none"
         id="path16" /><path
         d="m 638.488,1484.05 c -1.508,0.32 -3.168,0.55 -4.843,0.75 l 1.847,55.87 c 0.434,-0.14 0.867,-0.28 1.238,-0.37 16.055,-3.6 32.247,-3.34 33.504,-23.15 1.192,-18.93 -11.828,-37.26 -31.746,-33.1 z m -508.363,16.06 c -22.645,26.4 -9.301,66.42 26.441,62.57 l -2.453,-77.09 c -8.812,2.02 -17.109,6.5 -23.988,14.52 z m 564.934,38.43 c -9.981,9.4 -28.172,10.67 -40.84,13.52 -5.461,1.23 -12.461,1.75 -18.352,0.06 l 1.332,40.39 -24.664,-6.16 -6.961,-210.86 c -0.73,-10.51 -5.508,-43.17 -17.402,-55.08 -10.137,-10.13 -36.117,-23.06 -45.074,-27.09 -21.785,-9.34 -54.649,-23.47 -129.36,-21.71 -75.023,1.74 -105.609,10.56 -144.34,21.72 -6.484,1.87 -13.187,3.8 -20.343,5.78 -38.477,10.61 -66.641,43.09 -74.711,53.28 l 3.816,120.12 c 20.524,3.76 40.211,11.72 53.492,20.58 6.133,4.08 -3.222,7.64 -6.328,8.11 -7.121,1.05 -15.179,0.03 -21.246,-4.01 -7.836,-5.23 -16.59,-9.06 -25.492,-11.16 l 5.039,142.12 -22.687,16.82 -3.954,-69.02 c -44.457,0.13 -87.8707,-26.91 -59.6402,-77.56 11.3282,-20.32 32.9142,-27.91 56.2812,-28.11 l -3.988,-125.53 2.347,-3.34 c 1.461,-2.07 36.325,-50.9 90.575,-65.87 7.054,-1.95 13.664,-3.86 20.066,-5.7 40.426,-11.66 72.359,-20.86 150.547,-22.68 4.324,-0.1 8.516,-0.15 12.601,-0.15 71.336,0 105.879,14.8 127.161,23.92 3.785,1.71 37.406,17.08 52.527,32.2 20.445,20.45 24.152,65.58 24.527,71.1 l 3.18,96.15 c 27.508,-3.14 61.328,1.69 69.535,31.78 3.637,13.32 2.699,26.64 -7.644,36.38"
         style="fill:#231f20;fill-opacity:1;fill-rule:nonzero;stroke:none"
         id="path18" /><path
         d="m 198.293,1836.2 c -6.004,8.93 -6.703,22.03 -1.113,31.25 5.105,8.41 11.379,3.38 15.093,-2.85 0.504,-3.58 1.575,-7.19 3.122,-10.59 2.386,-5.27 18.89,-1.55 17.371,1.8 -0.235,0.51 -0.489,1.37 -0.735,2.14 0.371,0.43 0.52,0.9 0.379,1.39 -0.336,1.17 -1.07,2.06 -1.543,3.13 -2.207,10.55 -2.637,27.36 10.934,21.76 11.429,-4.71 16.035,-16.92 16.211,-28.23 0.277,-18.33 -9.852,-39.77 -22.407,-54.29 -14.585,9.24 -28.171,20.91 -37.312,34.49 z m 58.508,-46.05 c -3.352,1.47 -6.696,3.37 -10.051,5.13 21.285,21.01 42.047,64.4 17.098,88.92 -9.852,9.68 -25.5,10.44 -37.77,5.8 -6.586,-2.49 -10.48,-6.92 -12.473,-12.16 -13.972,4.57 -31.062,-0.02 -36.347,-15.89 -11.66,-35.02 42.07,-66.22 67.43,-77.28 4.109,-1.8 20.57,1.79 12.113,5.48"
         style="fill:#231f20;fill-opacity:1;fill-rule:nonzero;stroke:none"
         id="path20" /><path
         d="m 153.105,1879.24 c -0.25,0.07 -0.328,0.15 -0.609,0.21 -25.418,5.97 -60.5194,28.31 -74.4296,50.15 -7.7891,12.23 -7.4219,25.45 0.8789,37.12 19.0547,26.78 34.9607,-18.83 34.0627,-32.63 -0.371,-5.68 20.551,-6.1 20.949,0.14 0.559,8.53 -1.027,16.8 -4.367,24.12 -0.231,10.5 1.75,20.84 6.433,30.63 13.95,29.19 30.875,-12.45 32.809,-26.83 3.57,-26.48 -3.437,-57.5 -15.727,-82.91 z m 19.282,115.78 c -10.426,9.24 -30.664,22.36 -45.055,13 -9.84,-6.4 -14.859,-17.23 -16.836,-28.88 -3.68,2.07 -7.613,3.83 -11.9804,4.84 -18.707,4.32 -40.2461,-7.12 -45.625,-26 -11.5117,-40.38 56.9184,-78.28 89.0744,-85.83 1.949,-0.46 4.992,-0.17 7.867,0.48 -1.937,-3.58 -3.969,-7.04 -6.102,-10.29 -2.671,-4.08 16.04,-12.66 19.75,-7 21.524,32.8 44.532,108.12 8.907,139.68"
         style="fill:#231f20;fill-opacity:1;fill-rule:nonzero;stroke:none"
         id="path22" /><path
         d="m 58.0117,1716.34 c -20.2656,10.88 -36.2695,32.65 -36.1875,56.12 0.0703,20.75 19.8828,38.15 35.1719,23.86 1.4297,-1.76 2.8398,-3.54 4.4141,-5.12 3.4218,-3.45 26.0156,-9.08 20.5351,-0.98 -1.8476,2.74 -4.0937,5.32 -6.5234,7.79 -10.6289,14.6 -14.168,32.79 2.1953,46.04 23.0778,18.7 36.2228,-29.72 38.8948,-42.87 6.609,-32.54 5.336,-68.96 -0.938,-102.19 -20.5271,2.44 -40.7302,8.31 -57.5623,17.35"
         style="fill:#deddde;fill-opacity:1;fill-rule:nonzero;stroke:none"
         id="path24" /><path
         d="m 198.293,1836.2 c -6.004,8.93 -6.703,22.03 -1.113,31.25 5.105,8.41 11.379,3.38 15.093,-2.85 0.504,-3.58 1.575,-7.19 3.122,-10.59 2.386,-5.27 18.89,-1.55 17.371,1.8 -0.235,0.51 -0.489,1.37 -0.735,2.14 0.371,0.43 0.52,0.9 0.379,1.39 -0.336,1.17 -1.07,2.06 -1.543,3.13 -2.207,10.55 -2.637,27.36 10.934,21.76 11.429,-4.71 16.035,-16.92 16.211,-28.23 0.277,-18.33 -9.852,-39.77 -22.407,-54.29 -14.585,9.24 -28.171,20.91 -37.312,34.49"
         style="fill:#deddde;fill-opacity:1;fill-rule:nonzero;stroke:none"
         id="path26" /><path
         d="m 153.105,1879.24 c -0.25,0.07 -0.328,0.15 -0.609,0.21 -25.418,5.97 -60.5194,28.31 -74.4296,50.15 -7.7891,12.23 -7.4219,25.45 0.8789,37.12 19.0547,26.78 34.9607,-18.83 34.0627,-32.63 -0.371,-5.68 20.551,-6.1 20.949,0.14 0.559,8.53 -1.027,16.8 -4.367,24.12 -0.231,10.5 1.75,20.84 6.433,30.63 13.95,29.19 30.875,-12.45 32.809,-26.83 3.57,-26.48 -3.437,-57.5 -15.727,-82.91"
         style="fill:#deddde;fill-opacity:1;fill-rule:nonzero;stroke:none"
         id="path28" /><path
         d="m 392.316,1704.34 c -130.375,0 -210.433,-34.58 -210.433,-59.37 0,-24.79 80.058,-59.38 210.433,-59.38 130.379,0 210.43,34.59 210.43,59.38 0,24.79 -80.051,59.37 -210.43,59.37 z m 0,-139.7 c -112.168,0 -231.378,28.15 -231.378,80.33 0,52.17 119.21,80.33 231.378,80.33 112.176,0 231.383,-28.16 231.383,-80.33 0,-52.18 -119.207,-80.33 -231.383,-80.33"
         style="fill:#231f20;fill-opacity:1;fill-rule:nonzero;stroke:none"
         id="path30" /><path
         d="m 356.738,1773.86 c -85.754,0 -144.547,-23.81 -149.836,-45.88 -1.156,-4.84 0.286,-10.51 4.297,-16.84 22.383,-35.34 109.024,-74.87 210.688,-96.14 47.277,-9.88 93.922,-15.11 134.894,-15.11 71.961,0 108.051,16.14 111.891,32.15 1.469,6.14 -0.848,14.28 -6.699,23.52 -23.633,37.3 -100.93,86.23 -202.934,107.57 -34.047,7.11 -68.465,10.73 -102.301,10.73 z m 200.043,-194.92 c -42.394,0 -90.523,5.38 -139.183,15.56 -108.469,22.68 -198.528,65.05 -224.102,105.43 -7.156,11.29 -9.504,22.38 -6.969,32.95 8.739,36.46 78.735,61.93 170.211,61.93 35.274,0 71.137,-3.76 106.594,-11.18 112.711,-23.57 191.152,-77.1 216.344,-116.86 9.082,-14.34 12.23,-27.67 9.371,-39.62 -10.063,-41.95 -87.188,-48.21 -132.266,-48.21"
         style="fill:#231f20;fill-opacity:1;fill-rule:nonzero;stroke:none"
         id="path32" /><path
         d="m 652.508,1622.67 c -9.629,-36.04 -110.336,-40.4 -224.942,-9.76 -114.609,30.64 -199.695,84.68 -190.07,120.71 9.637,36.03 110.34,40.4 224.949,9.75 114.61,-30.63 199.696,-84.67 190.063,-120.7"
         style="fill:#a7a5a6;fill-opacity:1;fill-rule:nonzero;stroke:none"
         id="path34" /><path
         d="m 480.301,1799.42 c 40.176,-14.33 61.722,-74.64 33.48,-108.68 -23.906,-28.82 -67.133,-7.69 -79.453,20.99 -5.707,13.27 -1.832,32.34 9.727,41.13 13.906,10.58 17.644,-27.5 16.836,-33.16 -0.922,-6.52 23.394,-8.68 24.429,-1.39 5.071,35.75 -35.504,60.88 -65.144,38.34 -17.106,-13.01 -14.25,-39.04 -4.938,-55.49 11.301,-19.97 36.34,-29.86 57.774,-33.14 36.793,-5.61 72.656,12.45 77.566,51.18 4.902,38.72 -22.199,75.38 -57.473,87.96 -7.109,2.54 -27.75,-2.41 -12.804,-7.74 v 0"
         style="fill:#231f20;fill-opacity:1;fill-rule:nonzero;stroke:none"
         id="path36" /><path
         d="m 843.621,1663.79 h -75.683 v 67.48 h 224.523 v -67.48 h -76.133 v -403.94 h -72.707 v 403.94"
         style="fill:#231f20;fill-opacity:1;fill-rule:nonzero;stroke:none"
         id="path38" /><path
         d="m 1116.77,1480.07 v 37.4 c 0,33.79 -7.8,52.04 -33.87,52.04 -23.42,0 -34.74,-16.62 -34.74,-52.12 v -37.32 z m -69.23,-56.92 v -53.66 c 0,-28.22 6.52,-54.01 34.12,-54.01 28.95,0 32.54,25.91 32.54,52.18 v 1.75 h 70.85 v -1.66 c 0,-38.33 -8.2,-113.54 -101.69,-113.54 -93.032,0 -106.661,57.62 -106.661,131.47 v 119.7 c 0,49.96 15.742,125.41 106.291,125.41 77.99,0 103.38,-52.6 103.38,-124.87 0,-21.37 0,-61.77 0,-82.77 h -138.83"
         style="fill:#231f20;fill-opacity:1;fill-rule:nonzero;stroke:none"
         id="path40" /><path
         d="m 1369.42,1480.07 v 37.4 c 0,33.79 -7.79,52.04 -33.86,52.04 -23.42,0 -34.74,-16.62 -34.74,-52.12 v -37.32 z m -69.23,-56.92 v -53.66 c 0,-28.22 6.53,-54.01 34.12,-54.01 28.96,0 32.54,25.91 32.54,52.18 v 1.75 h 70.85 v -1.66 c 0,-38.33 -8.19,-113.54 -101.69,-113.54 -93.02,0 -106.66,57.62 -106.66,131.47 v 119.7 c 0,49.96 15.75,125.41 106.29,125.41 78,0 103.38,-52.6 103.38,-124.87 0,-21.37 0,-61.77 0,-82.77 h -138.83"
         style="fill:#231f20;fill-opacity:1;fill-rule:nonzero;stroke:none"
         id="path42" /><path
         d="m 1487.73,1512.45 c 0,74.21 0,96.12 -0.7,112.69 h 69.42 c 1.33,-8.39 2.66,-22.7 2.66,-33.23 10.59,21.2 30.15,38.88 67.32,38.88 44.45,0 75.04,-26.97 75.04,-95.99 v -274.95 h -72.7 v 261.23 c 0,32.97 -11.38,44.53 -31.42,44.53 -25.88,0 -36.91,-13.74 -36.91,-63.35 v -242.41 h -72.71 v 252.6"
         style="fill:#231f20;fill-opacity:1;fill-rule:nonzero;stroke:none"
         id="path44" /><path
         d="m 158.91,1159.95 h 71.465 V 947 h 0.707 c 18.063,46.609 58.422,148.08 84.391,212.95 h 80.953 l -85.871,-183.169 90.949,-288.25 h -79.172 l -61.559,212.258 -30.398,-63.48 V 688.531 H 158.91 v 471.419"
         style="fill:#231f20;fill-opacity:1;fill-rule:nonzero;stroke:none"
         id="path46" /><path
         d="m 431.859,1180.5 h 72.704 v -77.69 h -72.704 z m -0.621,-126.69 h 72.707 V 688.531 h -72.707 v 365.279"
         style="fill:#231f20;fill-opacity:1;fill-rule:nonzero;stroke:none"
         id="path48" /><path
         d="m 537.57,1053.81 h 38.785 v 87.68 h 72.622 v -87.68 h 45.816 V 990.059 H 648.977 V 774.078 c 0,-17.277 2.375,-31.09 24.421,-31.09 6.434,0 15.946,0.711 19.813,2.121 v -54.8 c -12.281,-5.93 -30.66,-7.258 -44.352,-7.258 -45.652,0 -72.504,14.738 -72.504,78.008 v 229 H 537.57 v 63.751"
         style="fill:#231f20;fill-opacity:1;fill-rule:nonzero;stroke:none"
         id="path50" /><path
         d="m 921.766,809.84 v -4.942 c 0,-65.949 -16.688,-122.019 -101.688,-122.019 -84.25,0 -99.578,56.383 -99.578,131.84 V 940.07 c 0,59.621 19.734,119.39 103.02,119.39 89.378,0 98.246,-64.71 98.246,-109.929 v -13.66 h -71.547 v 15.379 c 0,28.09 -4.489,46.941 -28.028,46.941 -21.535,0 -28.898,-16.703 -28.898,-47.519 V 792.359 c 0,-25.328 4.656,-48.211 28.73,-48.211 23.313,0 28.196,18.524 28.196,48.313 v 17.379 h 71.547"
         style="fill:#231f20;fill-opacity:1;fill-rule:nonzero;stroke:none"
         id="path52" /><path
         d="m 1037.48,1180.5 v -156.92 c 11.41,21.09 31.95,35.88 67.86,35.88 55.87,0 73.17,-41.92 73.17,-94.069 v -276.86 h -72.7 V 946.09 c 0,26.949 -5.31,48.199 -32.03,48.199 -28.28,0 -36.3,-18.559 -36.3,-60.328 V 688.531 H 964.773 V 1180.5 h 72.707"
         style="fill:#231f20;fill-opacity:1;fill-rule:nonzero;stroke:none"
         id="path54" /><path
         d="m 1369.42,908.75 v 37.398 c 0,33.782 -7.79,52.043 -33.86,52.043 -23.42,0 -34.74,-16.621 -34.74,-52.132 V 908.75 Z m -69.23,-56.922 v -53.656 c 0,-28.231 6.53,-54.024 34.12,-54.024 28.96,0 32.54,25.911 32.54,52.192 v 1.75 h 70.85 v -1.66 c 0,-38.34 -8.19,-113.551 -101.69,-113.551 -93.02,0 -106.66,57.621 -106.66,131.473 v 119.707 c 0,49.961 15.75,125.401 106.29,125.401 78,0 103.38,-52.59 103.38,-124.87 0,-21.36 0,-61.762 0,-82.762 h -138.83"
         style="fill:#231f20;fill-opacity:1;fill-rule:nonzero;stroke:none"
         id="path56" /><path
         d="m 1487.73,941.129 c 0,74.211 0,96.111 -0.7,112.681 h 69.42 c 1.33,-8.38 2.66,-22.69 2.66,-33.22 10.59,21.2 30.15,38.87 67.32,38.87 44.45,0 75.04,-26.96 75.04,-95.98 V 688.531 h -72.7 V 949.75 c 0,32.969 -11.38,44.539 -31.42,44.539 -25.88,0 -36.91,-13.738 -36.91,-63.359 V 688.531 h -72.71 v 252.598"
         style="fill:#231f20;fill-opacity:1;fill-rule:nonzero;stroke:none"
         id="path58" /><path
         d="m 262.023,379.371 h 19.922 c 45.328,0 53.09,26.469 53.09,72.488 v 23.172 c 0,34.258 -6.234,62.52 -46.625,62.52 H 262.023 Z M 189.316,597.57 h 104.856 c 74.863,0 113.031,-36.968 113.031,-120.34 v -27.769 c 0,-77.813 -27.777,-129.5 -117.098,-129.5 H 262.023 V 126.16 h -72.707 v 471.41"
         style="fill:#231f20;fill-opacity:1;fill-rule:nonzero;stroke:none"
         id="path60" /><path
         d="m 446.824,367.66 c 0,60.629 0.621,86.481 -0.707,123.781 h 68.895 c 0.711,-7.019 2.031,-39.519 2.031,-59.14 14.484,49.371 46.609,64.449 80.516,64.621 v -89.621 c -41.692,-0.09 -78.028,-10.66 -78.028,-85.5 V 126.16 h -72.707 v 241.5"
         style="fill:#231f20;fill-opacity:1;fill-rule:nonzero;stroke:none"
         id="path62" /><path
         d="M 698.785,383.461 V 235.879 c 0,-29.508 8.949,-50.988 34.832,-50.988 24.301,0 33.668,17.968 33.668,52.238 V 384.09 c 0,28.129 -7.535,48.621 -34.207,48.621 -23.734,0 -34.293,-16.961 -34.293,-49.25 z m 141.293,-4.18 V 238.879 c 0,-78.25 -38.933,-118.367 -107.789,-118.367 -71.176,0 -106.293,41.097 -106.293,117.937 v 143.852 c 0,79.078 44.922,114.777 108.406,114.777 66.149,0 105.676,-40.59 105.676,-117.797"
         style="fill:#231f20;fill-opacity:1;fill-rule:nonzero;stroke:none"
         id="path64" /><path
         d="m 891.41,540.43 v 77.699 h 72.707 V 540.43 Z m 72.457,-48.989 V 109.23 C 963.867,53.25 957.266,0 882.074,0 874.988,0 865.613,0 849.773,1.94922 V 66.5781 c 7.512,-0.707 12.282,-0.707 17.051,-0.707 18.352,0 24.332,5.3906 24.332,32.8203 V 491.441 h 72.711"
         style="fill:#231f20;fill-opacity:1;fill-rule:nonzero;stroke:none"
         id="path66" /><path
         d="m 1154.93,346.379 v 37.391 c 0,33.789 -7.79,52.039 -33.87,52.039 -23.42,0 -34.73,-16.61 -34.73,-52.129 v -37.301 z m -69.23,-56.918 v -53.672 c 0,-28.219 6.52,-54.008 34.12,-54.008 28.96,0 32.54,25.91 32.54,52.188 v 1.75 h 70.85 v -1.66 c 0,-38.34 -8.19,-113.547 -101.69,-113.547 -93.03,0 -106.66,57.617 -106.66,131.468 v 119.7 c 0,49.961 15.74,125.398 106.29,125.398 78,0 103.38,-52.578 103.38,-124.859 0,-21.367 0,-61.77 0,-82.758 H 1085.7"
         style="fill:#231f20;fill-opacity:1;fill-rule:nonzero;stroke:none"
         id="path68" /><path
         d="m 1468.77,247.461 v -4.941 c 0,-65.942 -16.69,-122.008 -101.69,-122.008 -84.25,0 -99.57,56.379 -99.57,131.84 v 125.347 c 0,59.621 19.72,119.379 103.02,119.379 89.37,0 98.24,-64.699 98.24,-109.918 V 373.5 h -71.55 v 15.379 c 0,28.09 -4.49,46.93 -28.02,46.93 -21.54,0 -28.91,-16.707 -28.91,-47.52 V 229.98 c 0,-25.32 4.66,-48.199 28.73,-48.199 23.32,0 28.2,18.52 28.2,48.309 v 17.371 h 71.55"
         style="fill:#231f20;fill-opacity:1;fill-rule:nonzero;stroke:none"
         id="path70" /><path
         d="m 1495.32,491.441 h 38.79 v 87.668 h 72.62 v -87.668 h 45.81 v -63.75 h -45.81 V 211.699 c 0,-17.269 2.37,-31.078 24.41,-31.078 6.44,0 15.96,0.711 19.82,2.117 V 127.93 c -12.28,-5.93 -30.66,-7.25 -44.35,-7.25 -45.65,0 -72.5,14.73 -72.5,78 v 229.011 h -38.79 v 63.75"
         style="fill:#231f20;fill-opacity:1;fill-rule:nonzero;stroke:none"
         id="path72" /></g></g></svg>
