<?xml version="1.0" encoding="UTF-8" standalone="no"?>
<svg
   xmlns:dc="http://purl.org/dc/elements/1.1/"
   xmlns:cc="http://creativecommons.org/ns#"
   xmlns:rdf="http://www.w3.org/1999/02/22-rdf-syntax-ns#"
   xmlns:svg="http://www.w3.org/2000/svg"
   xmlns="http://www.w3.org/2000/svg"
   xmlns:sodipodi="http://sodipodi.sourceforge.net/DTD/sodipodi-0.dtd"
   xmlns:inkscape="http://www.inkscape.org/namespaces/inkscape"
   version="1.1"
   id="svg2"
   xml:space="preserve"
   width="226.86667"
   height="268.16"
   viewBox="0 0 226.86667 268.16"
   sodipodi:docname="Teen Kitchen Project vertical color.eps"><metadata
     id="metadata8"><rdf:RDF><cc:Work
         rdf:about=""><dc:format>image/svg+xml</dc:format><dc:type
           rdf:resource="http://purl.org/dc/dcmitype/StillImage" /></cc:Work></rdf:RDF></metadata><defs
     id="defs6" /><sodipodi:namedview
     pagecolor="#ffffff"
     bordercolor="#666666"
     borderopacity="1"
     objecttolerance="10"
     gridtolerance="10"
     guidetolerance="10"
     inkscape:pageopacity="0"
     inkscape:pageshadow="2"
     inkscape:window-width="640"
     inkscape:window-height="480"
     id="namedview4" /><g
     id="g10"
     inkscape:groupmode="layer"
     inkscape:label="ink_ext_XXXXXX"
     transform="matrix(1.3333333,0,0,-1.3333333,0,268.16)"><g
       id="g12"
       transform="scale(0.1)"><path
         d="m 589.25,1585.94 4.656,-218.88 c 0,0 -9.312,-27.93 -34.922,-41.91 -25.613,-13.97 -86.152,-41.9 -195.586,-39.58 -109.441,2.33 -137.968,19.33 -158.339,32.6 -22.836,14.87 -30.086,19.18 -37.071,28.5 l 7.637,277.28 c 0,0 11.969,-17.98 61.129,-31.44 61.297,-16.78 111.297,-22.28 169.512,-22.28 58.211,0 182.984,15.71 182.984,15.71"
         style="fill:#069cab;fill-opacity:1;fill-rule:nonzero;stroke:none"
         id="path14" /><path
         d="m 58.0117,1716.34 c -20.2617,10.88 -36.2734,32.65 -36.1914,56.12 0.0742,20.75 19.8906,38.15 35.1758,23.86 1.4258,-1.76 2.8398,-3.54 4.4141,-5.12 3.4257,-3.45 26.0117,-9.08 20.5351,-0.98 -1.8476,2.74 -4.0976,5.32 -6.5234,7.79 -10.625,14.6 -14.168,32.79 2.1914,46.04 23.0817,18.7 36.2307,-29.72 38.9027,-42.87 6.605,-32.54 5.336,-68.96 -0.946,-102.19 -20.5192,2.44 -40.7262,8.31 -57.5583,17.35 z m 109.8323,-15.39 c -9.199,-2.04 -18.965,-3.06 -28.918,-3.23 3.5,21.74 4.449,44.12 3.351,65.91 -1.382,27.32 -4.195,58.08 -24.367,78.47 -13.16,13.3 -39.9295,22.79 -57.4647,12.57 -16.8086,-9.81 -19.0195,-25.52 -13.8476,-40.29 -8.8672,1.86 -18.0625,1.14 -26.461,-3.49 -31.664,-17.5 -21.035138,-55.56 -1.8984,-78.44 21.1992,-25.33 58.164,-39.13 95.4377,-43.85 -0.129,-0.59 -0.188,-1.23 -0.332,-1.82 -1.551,-6.64 20.84,-12.58 22.301,-6.34 0.492,2.1 0.777,4.26 1.21,6.38 17.536,-0.48 34.43,0.94 48.961,4.16 7.758,1.71 -12.031,11.29 -17.972,9.97"
         style="fill:#0e0d11;fill-opacity:1;fill-rule:nonzero;stroke:none"
         id="path16" /><path
         d="m 638.492,1484.05 c -1.508,0.32 -3.176,0.55 -4.847,0.75 l 1.847,55.87 c 0.43,-0.14 0.871,-0.28 1.242,-0.37 16.055,-3.6 32.246,-3.34 33.496,-23.15 1.196,-18.93 -11.828,-37.26 -31.738,-33.1 z m -508.363,16.06 c -22.649,26.4 -9.305,66.42 26.434,62.57 l -2.45,-77.09 c -8.816,2.02 -17.105,6.5 -23.984,14.52 z m 564.93,38.43 c -9.985,9.4 -28.168,10.67 -40.844,13.52 -5.453,1.23 -12.457,1.75 -18.344,0.06 l 1.328,40.39 -24.66,-6.16 -6.969,-210.86 c -0.726,-10.51 -5.5,-43.17 -17.394,-55.08 -10.145,-10.13 -36.125,-23.06 -45.074,-27.09 -21.793,-9.34 -54.653,-23.47 -129.368,-21.71 -75.019,1.74 -105.609,10.56 -144.336,21.72 -6.488,1.87 -13.191,3.8 -20.339,5.78 -38.477,10.61 -66.641,43.09 -74.719,53.28 l 3.82,120.12 c 20.528,3.76 40.215,11.72 53.496,20.58 6.129,4.08 -3.226,7.64 -6.328,8.11 -7.125,1.05 -15.18,0.03 -21.25,-4.01 -7.836,-5.23 -16.594,-9.06 -25.488,-11.16 l 5.039,142.12 -22.695,16.82 -3.95,-69.02 c -44.453,0.13 -87.8707,-26.91 -59.6442,-77.56 11.3322,-20.32 32.9182,-27.91 56.2892,-28.11 l -3.988,-125.53 2.347,-3.34 c 1.453,-2.07 36.317,-50.9 90.567,-65.87 7.054,-1.95 13.672,-3.86 20.066,-5.7 40.43,-11.66 72.359,-20.86 150.547,-22.68 4.332,-0.1 8.523,-0.15 12.605,-0.15 71.336,0 105.883,14.8 127.161,23.92 3.785,1.71 37.402,17.08 52.527,32.2 20.449,20.45 24.148,65.58 24.531,71.1 l 3.172,96.15 c 27.516,-3.14 61.328,1.69 69.535,31.78 3.641,13.32 2.707,26.64 -7.64,36.38"
         style="fill:#0e0d11;fill-opacity:1;fill-rule:nonzero;stroke:none"
         id="path18" /><path
         d="m 198.293,1836.2 c -6.008,8.93 -6.699,22.03 -1.109,31.25 5.101,8.41 11.375,3.38 15.093,-2.85 0.496,-3.58 1.571,-7.19 3.118,-10.59 2.39,-5.27 18.894,-1.55 17.371,1.8 -0.231,0.51 -0.485,1.37 -0.735,2.14 0.367,0.43 0.524,0.9 0.375,1.39 -0.336,1.17 -1.062,2.06 -1.543,3.13 -2.199,10.55 -2.636,27.36 10.934,21.76 11.437,-4.71 16.039,-16.92 16.211,-28.23 0.285,-18.33 -9.844,-39.77 -22.403,-54.29 -14.589,9.24 -28.171,20.91 -37.312,34.49 z m 58.504,-46.05 c -3.344,1.47 -6.695,3.37 -10.047,5.13 21.281,21.01 42.051,64.4 17.098,88.92 -9.848,9.68 -25.496,10.44 -37.774,5.8 -6.586,-2.49 -10.476,-6.92 -12.465,-12.16 -13.976,4.57 -31.07,-0.02 -36.351,-15.89 -11.66,-35.02 42.074,-66.22 67.426,-77.28 4.109,-1.8 20.574,1.79 12.113,5.48"
         style="fill:#0e0d11;fill-opacity:1;fill-rule:nonzero;stroke:none"
         id="path20" /><path
         d="m 153.102,1879.24 c -0.25,0.07 -0.325,0.15 -0.602,0.21 -25.418,5.97 -60.5234,28.31 -74.4336,50.15 -7.793,12.23 -7.4258,25.45 0.8789,37.12 19.0547,26.78 34.9567,-18.83 34.0627,-32.63 -0.371,-5.68 20.547,-6.1 20.953,0.14 0.555,8.53 -1.031,16.8 -4.371,24.12 -0.231,10.5 1.75,20.84 6.43,30.63 13.957,29.19 30.875,-12.45 32.816,-26.83 3.566,-26.48 -3.445,-57.5 -15.734,-82.91 z m 19.285,115.78 c -10.426,9.24 -30.664,22.36 -45.051,13 -9.844,-6.4 -14.859,-17.23 -16.844,-28.88 -3.676,2.07 -7.605,3.83 -11.9764,4.84 -18.7109,4.32 -40.2422,-7.12 -45.625,-26 -11.5078,-40.38 56.9184,-78.28 89.0784,-85.83 1.941,-0.46 4.984,-0.17 7.867,0.48 -1.941,-3.58 -3.973,-7.04 -6.109,-10.29 -2.672,-4.08 16.043,-12.66 19.753,-7 21.524,32.8 44.532,108.12 8.907,139.68"
         style="fill:#0e0d11;fill-opacity:1;fill-rule:nonzero;stroke:none"
         id="path22" /><path
         d="m 58.0117,1716.34 c -20.2617,10.88 -36.2734,32.65 -36.1914,56.12 0.0742,20.75 19.8906,38.15 35.1758,23.86 1.4258,-1.76 2.8398,-3.54 4.4141,-5.12 3.4257,-3.45 26.0117,-9.08 20.5351,-0.98 -1.8476,2.74 -4.0976,5.32 -6.5234,7.79 -10.625,14.6 -14.168,32.79 2.1914,46.04 23.0817,18.7 36.2307,-29.72 38.9027,-42.87 6.605,-32.54 5.336,-68.96 -0.946,-102.19 -20.5192,2.44 -40.7262,8.31 -57.5583,17.35"
         style="fill:#ed641b;fill-opacity:1;fill-rule:nonzero;stroke:none"
         id="path24" /><path
         d="m 198.293,1836.2 c -6.008,8.93 -6.699,22.03 -1.109,31.25 5.101,8.41 11.375,3.38 15.093,-2.85 0.496,-3.58 1.571,-7.19 3.118,-10.59 2.39,-5.27 18.894,-1.55 17.371,1.8 -0.231,0.51 -0.485,1.37 -0.735,2.14 0.367,0.43 0.524,0.9 0.375,1.39 -0.336,1.17 -1.062,2.06 -1.543,3.13 -2.199,10.55 -2.636,27.36 10.934,21.76 11.437,-4.71 16.039,-16.92 16.211,-28.23 0.285,-18.33 -9.844,-39.77 -22.403,-54.29 -14.589,9.24 -28.171,20.91 -37.312,34.49"
         style="fill:#ed641b;fill-opacity:1;fill-rule:nonzero;stroke:none"
         id="path26" /><path
         d="m 153.102,1879.24 c -0.25,0.07 -0.325,0.15 -0.602,0.21 -25.418,5.97 -60.5234,28.31 -74.4336,50.15 -7.793,12.23 -7.4258,25.45 0.8789,37.12 19.0547,26.78 34.9567,-18.83 34.0627,-32.63 -0.371,-5.68 20.547,-6.1 20.953,0.14 0.555,8.53 -1.031,16.8 -4.371,24.12 -0.231,10.5 1.75,20.84 6.43,30.63 13.957,29.19 30.875,-12.45 32.816,-26.83 3.566,-26.48 -3.445,-57.5 -15.734,-82.91"
         style="fill:#ed641b;fill-opacity:1;fill-rule:nonzero;stroke:none"
         id="path28" /><path
         d="m 392.32,1704.34 c -130.375,0 -210.433,-34.58 -210.433,-59.37 0,-24.79 80.058,-59.38 210.433,-59.38 130.371,0 210.43,34.59 210.43,59.38 0,24.79 -80.059,59.37 -210.43,59.37 z m 0,-139.7 c -112.172,0 -231.386,28.15 -231.386,80.33 0,52.17 119.214,80.33 231.386,80.33 112.172,0 231.383,-28.16 231.383,-80.33 0,-52.18 -119.211,-80.33 -231.383,-80.33"
         style="fill:#0e0d11;fill-opacity:1;fill-rule:nonzero;stroke:none"
         id="path30" /><path
         d="m 356.738,1773.86 c -85.75,0 -144.547,-23.81 -149.832,-45.88 -1.164,-4.84 0.282,-10.51 4.289,-16.84 22.391,-35.34 109.024,-74.87 210.692,-96.14 47.273,-9.88 93.926,-15.11 134.89,-15.11 71.969,0 108.051,16.14 111.891,32.15 1.473,6.14 -0.844,14.28 -6.695,23.52 -23.633,37.3 -100.926,86.23 -202.93,107.57 -34.047,7.11 -68.473,10.73 -102.305,10.73 z m 200.039,-194.92 c -42.386,0 -90.515,5.38 -139.183,15.56 -108.461,22.68 -198.528,65.05 -224.098,105.43 -7.156,11.29 -9.5,22.38 -6.973,32.95 8.747,36.46 78.743,61.93 170.215,61.93 35.274,0 71.137,-3.76 106.598,-11.18 112.711,-23.57 191.152,-77.1 216.336,-116.86 9.09,-14.34 12.238,-27.67 9.371,-39.62 -10.063,-41.95 -87.188,-48.21 -132.266,-48.21"
         style="fill:#0e0d11;fill-opacity:1;fill-rule:nonzero;stroke:none"
         id="path32" /><path
         d="m 652.512,1622.67 c -9.629,-36.04 -110.344,-40.4 -224.949,-9.76 -114.602,30.64 -199.696,84.68 -190.067,120.71 9.633,36.03 110.34,40.4 224.949,9.75 114.606,-30.63 199.7,-84.67 190.067,-120.7"
         style="fill:#069cab;fill-opacity:1;fill-rule:nonzero;stroke:none"
         id="path34" /><path
         d="m 480.305,1799.42 c 40.168,-14.33 61.718,-74.64 33.476,-108.68 -23.906,-28.82 -67.129,-7.69 -79.453,20.99 -5.703,13.27 -1.832,32.34 9.727,41.13 13.91,10.58 17.64,-27.5 16.84,-33.16 -0.93,-6.52 23.394,-8.68 24.429,-1.39 5.067,35.75 -35.508,60.88 -65.148,38.34 -17.106,-13.01 -14.254,-39.04 -4.938,-55.49 11.305,-19.97 36.344,-29.86 57.774,-33.14 36.793,-5.61 72.656,12.45 77.566,51.18 4.906,38.72 -22.203,75.38 -57.476,87.96 -7.11,2.54 -27.747,-2.41 -12.797,-7.74 v 0"
         style="fill:#0e0d11;fill-opacity:1;fill-rule:nonzero;stroke:none"
         id="path36" /><path
         d="m 843.625,1663.78 h -75.684 v 67.49 h 224.52 v -67.49 h -76.133 v -403.93 h -72.703 v 403.93"
         style="fill:#0e0d11;fill-opacity:1;fill-rule:nonzero;stroke:none"
         id="path38" /><path
         d="m 1116.77,1480.07 v 37.39 c 0,33.79 -7.79,52.04 -33.87,52.04 -23.42,0 -34.74,-16.61 -34.74,-52.12 v -37.31 z m -69.23,-56.92 v -53.67 c 0,-28.22 6.52,-54.01 34.12,-54.01 28.96,0 32.54,25.92 32.54,52.19 v 1.75 h 70.85 v -1.67 c 0,-38.33 -8.19,-113.54 -101.69,-113.54 -93.028,0 -106.661,57.62 -106.661,131.47 v 119.71 c 0,49.96 15.742,125.4 106.291,125.4 78,0 103.38,-52.59 103.38,-124.87 0,-21.37 0,-61.76 0,-82.76 h -138.83"
         style="fill:#0e0d11;fill-opacity:1;fill-rule:nonzero;stroke:none"
         id="path40" /><path
         d="m 1369.42,1480.07 v 37.39 c 0,33.79 -7.79,52.04 -33.86,52.04 -23.42,0 -34.74,-16.61 -34.74,-52.12 v -37.31 z m -69.22,-56.92 v -53.67 c 0,-28.22 6.52,-54.01 34.12,-54.01 28.95,0 32.54,25.92 32.54,52.19 v 1.75 h 70.85 v -1.67 c 0,-38.33 -8.2,-113.54 -101.69,-113.54 -93.03,0 -106.66,57.62 -106.66,131.47 v 119.71 c 0,49.96 15.74,125.4 106.28,125.4 78,0 103.38,-52.59 103.38,-124.87 0,-21.37 0,-61.76 0,-82.76 H 1300.2"
         style="fill:#0e0d11;fill-opacity:1;fill-rule:nonzero;stroke:none"
         id="path42" /><path
         d="m 1487.73,1512.44 c 0,74.21 0,96.12 -0.7,112.69 h 69.43 c 1.32,-8.38 2.65,-22.7 2.65,-33.22 10.59,21.2 30.15,38.87 67.33,38.87 44.44,0 75.04,-26.96 75.04,-95.99 v -274.94 h -72.71 v 261.22 c 0,32.97 -11.38,44.54 -31.42,44.54 -25.87,0 -36.91,-13.75 -36.91,-63.36 v -242.4 h -72.71 v 252.59"
         style="fill:#0e0d11;fill-opacity:1;fill-rule:nonzero;stroke:none"
         id="path44" /><path
         d="m 158.91,1159.94 h 71.465 V 947 h 0.711 c 18.059,46.602 58.422,148.07 84.387,212.94 h 80.953 L 310.559,976.762 401.504,688.52 h -79.168 l -61.559,212.261 -30.402,-63.48 V 688.52 H 158.91 v 471.42"
         style="fill:#0e0d11;fill-opacity:1;fill-rule:nonzero;stroke:none"
         id="path46" /><path
         d="m 431.859,1180.49 h 72.707 v -77.69 h -72.707 z m -0.617,-126.69 h 72.703 V 688.52 h -72.703 v 365.28"
         style="fill:#0e0d11;fill-opacity:1;fill-rule:nonzero;stroke:none"
         id="path48" /><path
         d="m 537.574,1053.8 h 38.785 v 87.68 h 72.621 v -87.68 h 45.817 V 990.039 H 648.98 V 774.07 c 0,-17.281 2.372,-31.09 24.418,-31.09 6.438,0 15.95,0.711 19.817,2.122 v -54.801 c -12.281,-5.93 -30.66,-7.262 -44.352,-7.262 -45.652,0 -72.504,14.742 -72.504,78.012 v 228.988 h -38.785 v 63.761"
         style="fill:#0e0d11;fill-opacity:1;fill-rule:nonzero;stroke:none"
         id="path50" /><path
         d="m 921.77,809.828 v -4.937 c 0,-65.95 -16.692,-122.02 -101.692,-122.02 -84.246,0 -99.574,56.379 -99.574,131.84 v 125.348 c 0,59.621 19.73,119.391 103.016,119.391 89.382,0 98.25,-64.712 98.25,-109.93 v -13.661 h -71.551 v 15.379 c 0,28.09 -4.485,46.942 -28.028,46.942 -21.531,0 -28.894,-16.711 -28.894,-47.52 V 792.352 c 0,-25.332 4.652,-48.211 28.73,-48.211 23.309,0 28.192,18.519 28.192,48.308 v 17.379 h 71.551"
         style="fill:#0e0d11;fill-opacity:1;fill-rule:nonzero;stroke:none"
         id="path52" /><path
         d="m 1037.48,1180.49 v -156.92 c 11.41,21.09 31.95,35.88 67.86,35.88 55.87,0 73.18,-41.92 73.18,-94.059 V 688.52 h -72.71 v 257.558 c 0,26.953 -5.31,48.203 -32.03,48.203 -28.28,0 -36.3,-18.562 -36.3,-60.332 V 688.52 h -72.703 v 491.97 h 72.703"
         style="fill:#0e0d11;fill-opacity:1;fill-rule:nonzero;stroke:none"
         id="path54" /><path
         d="m 1369.42,908.738 v 37.403 c 0,33.781 -7.79,52.039 -33.86,52.039 -23.42,0 -34.74,-16.61 -34.74,-52.129 V 908.738 Z M 1300.2,851.82 v -53.66 c 0,-28.23 6.52,-54.019 34.12,-54.019 28.95,0 32.54,25.91 32.54,52.191 v 1.746 h 70.85 v -1.656 c 0,-38.344 -8.2,-113.551 -101.69,-113.551 -93.03,0 -106.66,57.617 -106.66,131.469 v 119.711 c 0,49.961 15.74,125.399 106.28,125.399 78,0 103.38,-52.59 103.38,-124.872 0,-21.359 0,-61.758 0,-82.758 H 1300.2"
         style="fill:#0e0d11;fill-opacity:1;fill-rule:nonzero;stroke:none"
         id="path56" /><path
         d="m 1487.73,941.121 c 0,74.199 0,96.109 -0.7,112.679 h 69.43 c 1.32,-8.38 2.65,-22.69 2.65,-33.22 10.59,21.2 30.15,38.87 67.33,38.87 44.44,0 75.04,-26.96 75.04,-95.981 V 688.52 h -72.71 v 261.218 c 0,32.981 -11.38,44.543 -31.42,44.543 -25.87,0 -36.91,-13.75 -36.91,-63.359 V 688.52 h -72.71 v 252.601"
         style="fill:#0e0d11;fill-opacity:1;fill-rule:nonzero;stroke:none"
         id="path58" /><path
         d="m 262.027,379.371 h 19.922 c 45.328,0 53.09,26.469 53.09,72.488 v 23.172 c 0,34.258 -6.234,62.52 -46.625,62.52 H 262.027 Z M 189.316,597.57 h 104.86 c 74.863,0 113.031,-36.968 113.031,-120.34 v -27.769 c 0,-77.813 -27.777,-129.5 -117.098,-129.5 H 262.027 V 126.16 h -72.711 v 471.41"
         style="fill:#0e0d11;fill-opacity:1;fill-rule:nonzero;stroke:none"
         id="path60" /><path
         d="m 446.828,367.66 c 0,60.629 0.617,86.481 -0.711,123.781 h 68.899 c 0.707,-7.019 2.031,-39.519 2.031,-59.14 14.48,49.371 46.605,64.449 80.512,64.621 v -89.621 c -41.688,-0.09 -78.028,-10.66 -78.028,-85.5 V 126.16 h -72.703 v 241.5"
         style="fill:#0e0d11;fill-opacity:1;fill-rule:nonzero;stroke:none"
         id="path62" /><path
         d="M 698.789,383.461 V 235.879 c 0,-29.508 8.945,-50.988 34.828,-50.988 24.305,0 33.668,17.968 33.668,52.238 V 384.09 c 0,28.129 -7.531,48.621 -34.203,48.621 -23.734,0 -34.293,-16.961 -34.293,-49.25 z m 141.289,-4.18 V 238.879 c 0,-78.25 -38.93,-118.367 -107.785,-118.367 -71.18,0 -106.297,41.097 -106.297,117.937 v 143.852 c 0,79.078 44.922,114.777 108.41,114.777 66.145,0 105.672,-40.59 105.672,-117.797"
         style="fill:#0e0d11;fill-opacity:1;fill-rule:nonzero;stroke:none"
         id="path64" /><path
         d="m 891.41,540.43 v 77.699 h 72.711 V 540.43 Z m 72.457,-48.989 V 109.23 C 963.867,53.25 957.266,0 882.074,0 874.992,0 865.617,0 849.777,1.94922 V 66.5781 c 7.508,-0.707 12.278,-0.707 17.051,-0.707 18.348,0 24.328,5.3906 24.328,32.8203 V 491.441 h 72.711"
         style="fill:#0e0d11;fill-opacity:1;fill-rule:nonzero;stroke:none"
         id="path66" /><path
         d="m 1154.93,346.379 v 37.391 c 0,33.789 -7.79,52.039 -33.87,52.039 -23.41,0 -34.73,-16.61 -34.73,-52.129 v -37.301 z m -69.23,-56.918 v -53.672 c 0,-28.219 6.53,-54.008 34.12,-54.008 28.96,0 32.54,25.91 32.54,52.188 v 1.75 h 70.85 v -1.66 c 0,-38.34 -8.19,-113.547 -101.69,-113.547 -93.02,0 -106.66,57.617 -106.66,131.468 v 119.7 c 0,49.961 15.75,125.398 106.29,125.398 78,0 103.38,-52.578 103.38,-124.859 0,-21.367 0,-61.77 0,-82.758 H 1085.7"
         style="fill:#0e0d11;fill-opacity:1;fill-rule:nonzero;stroke:none"
         id="path68" /><path
         d="m 1468.77,247.461 v -4.941 c 0,-65.942 -16.69,-122.008 -101.69,-122.008 -84.25,0 -99.57,56.379 -99.57,131.84 v 125.347 c 0,59.621 19.73,119.379 103.02,119.379 89.37,0 98.24,-64.699 98.24,-109.918 V 373.5 h -71.55 v 15.379 c 0,28.09 -4.49,46.93 -28.02,46.93 -21.53,0 -28.91,-16.707 -28.91,-47.52 V 229.98 c 0,-25.32 4.66,-48.199 28.73,-48.199 23.32,0 28.2,18.52 28.2,48.309 v 17.371 h 71.55"
         style="fill:#0e0d11;fill-opacity:1;fill-rule:nonzero;stroke:none"
         id="path70" /><path
         d="m 1495.32,491.441 h 38.79 v 87.668 h 72.62 v -87.668 h 45.81 v -63.75 h -45.81 V 211.699 c 0,-17.269 2.37,-31.078 24.41,-31.078 6.44,0 15.96,0.711 19.82,2.117 V 127.93 c -12.28,-5.93 -30.66,-7.25 -44.35,-7.25 -45.65,0 -72.5,14.73 -72.5,78 v 229.011 h -38.79 v 63.75"
         style="fill:#0e0d11;fill-opacity:1;fill-rule:nonzero;stroke:none"
         id="path72" /></g></g></svg>
